<?xml version="1.0" encoding="UTF-8"?>
<svg width="23px" height="23px" viewBox="0 0 23 23" version="1.1" xmlns="http://www.w3.org/2000/svg" xmlns:xlink="http://www.w3.org/1999/xlink">
    <!-- Generator: Sketch 50.2 (55047) - http://www.bohemiancoding.com/sketch -->
    <title>icon/search_gray</title>
    <desc>Created with Sketch.</desc>
    <defs></defs>
    <g id="page1" stroke="none" stroke-width="1" fill="none" fill-rule="evenodd">
        <g id="Desktop" transform="translate(-286.000000, -179.000000)" fill="#B1B1B1">
            <g id="search-bar-copy" transform="translate(266.000000, 166.000000)">
                <g id="icon/search_gray" transform="translate(20.000000, 13.000000)">
                    <g id="search">
                        <path d="M22.2029403,20.8907983 L16.7442041,15.2134389 C18.1477411,13.5449773 18.9167473,11.4457111 18.9167473,9.2602841 C18.9167473,4.15424397 14.7625033,0 9.65646321,0 C4.55042308,0 0.396179111,4.15424397 0.396179111,9.2602841 C0.396179111,14.3663242 4.55042308,18.5205682 9.65646321,18.5205682 C11.573342,18.5205682 13.4000337,17.9424044 14.9618008,16.8448594 L20.4620069,22.5652992 C20.6919035,22.8040535 21.0011165,22.9357106 21.3324736,22.9357106 C21.6461154,22.9357106 21.9436523,22.8161322 22.1695227,22.5987168 C22.649447,22.1369104 22.6647466,21.3711252 22.2029403,20.8907983 Z M9.65646321,2.41572629 C13.4306329,2.41572629 16.501021,5.4861144 16.501021,9.2602841 C16.501021,13.0344538 13.4306329,16.1048419 9.65646321,16.1048419 C5.88229351,16.1048419 2.8119054,13.0344538 2.8119054,9.2602841 C2.8119054,5.4861144 5.88229351,2.41572629 9.65646321,2.41572629 Z" id="Shape" fill-rule="nonzero"></path>
                    </g>
                </g>
            </g>
        </g>
    </g>
</svg>