<?xml version="1.0" encoding="UTF-8"?>
<svg width="36px" height="36px" viewBox="0 0 36 36" version="1.1" xmlns="http://www.w3.org/2000/svg" xmlns:xlink="http://www.w3.org/1999/xlink">
    <!-- Generator: Sketch 50.2 (55047) - http://www.bohemiancoding.com/sketch -->
    <title>icon/!_gray</title>
    <desc>Created with Sketch.</desc>
    <defs></defs>
    <g id="icon/!_gray" stroke="none" stroke-width="1" fill="none" fill-rule="evenodd">
        <g id="danger" transform="translate(0.000000, 2.000000)" fill="#B0B0B0" fill-rule="nonzero">
            <path d="M35.5361484,26.1136406 L20.7695391,1.62435937 C20.1877734,0.659601562 19.1265469,0.0602578125 17.9999297,0.0602578125 C16.8733125,0.0602578125 15.8120859,0.659601562 15.23025,1.62442969 L0.463710938,26.1136406 C-0.13753125,27.1108125 -0.155320312,28.360125 0.417234375,29.3740312 C0.989929688,30.3879375 2.06894531,31.0177969 3.23332031,31.0177969 L32.7665391,31.0177969 C33.9309141,31.0177969 35.01,30.3879375 35.5826953,29.3739609 C36.15525,28.3599844 36.1374609,27.1106719 35.5361484,26.1136406 Z M33.5418047,28.2214687 C33.3841641,28.5005391 33.0870937,28.674 32.7665391,28.674 L3.23332031,28.674 C2.91276563,28.674 2.61569531,28.5006094 2.458125,28.2215391 C2.30048438,27.9423984 2.30540625,27.5984297 2.47085156,27.324 L17.2375313,2.83471875 C17.3977031,2.56914844 17.6898516,2.404125 18,2.404125 C18.3100781,2.404125 18.6022266,2.56914844 18.7623984,2.83471875 L33.5289375,27.324 C33.6945234,27.5985 33.6994453,27.9423984 33.5418047,28.2214687 Z" id="Shape"></path>
            <path d="M18.0108281,9.70347656 C17.1192656,9.70347656 16.4234531,10.1818828 16.4234531,11.0299922 C16.4234531,13.6176328 16.7278359,17.3360391 16.7278359,19.92375 C16.7279063,20.5978359 17.3150859,20.8804922 18.0108984,20.8804922 C18.5327578,20.8804922 19.2720938,20.5978359 19.2720938,19.92375 C19.2720938,17.3361094 19.5764766,13.6177031 19.5764766,11.0299922 C19.5764766,10.1819531 18.8589375,9.70347656 18.0108281,9.70347656 Z" id="Shape"></path>
            <path d="M18.0326953,22.3808906 C17.0759531,22.3808906 16.3582734,23.1419531 16.3582734,24.0553125 C16.3582734,24.946875 17.0758828,25.7297344 18.0326953,25.7297344 C18.9242578,25.7297344 19.6853906,24.946875 19.6853906,24.0553125 C19.6853906,23.1419531 18.9241875,22.3808906 18.0326953,22.3808906 Z" id="Shape"></path>
        </g>
    </g>
</svg>