<?xml version="1.0" encoding="UTF-8"?>
<svg width="36px" height="36px" viewBox="0 0 36 36" version="1.1" xmlns="http://www.w3.org/2000/svg" xmlns:xlink="http://www.w3.org/1999/xlink">
    <!-- Generator: Sketch 50.2 (55047) - http://www.bohemiancoding.com/sketch -->
    <title>icon/calendar_gray</title>
    <desc>Created with Sketch.</desc>
    <defs></defs>
    <g id="icon/calendar_gray" stroke="none" stroke-width="1" fill="none" fill-rule="evenodd">
        <g id="calendar" fill="#B0B0B0" fill-rule="nonzero">
            <path d="M31.78125,2.8125 L30.09375,2.8125 L30.09375,0 L27.28125,0 L27.28125,2.8125 L8.71875,2.8125 L8.71875,0 L5.90625,0 L5.90625,2.8125 L4.21875,2.8125 C1.89253125,2.8125 0,4.70503125 0,7.03125 L0,31.78125 C0,34.1074688 1.89253125,36 4.21875,36 L31.78125,36 C34.1074688,36 36,34.1074688 36,31.78125 L36,7.03125 C36,4.70503125 34.1074688,2.8125 31.78125,2.8125 Z M33.1875,31.78125 C33.1875,32.5566563 32.5566563,33.1875 31.78125,33.1875 L4.21875,33.1875 C3.44334375,33.1875 2.8125,32.5566563 2.8125,31.78125 L2.8125,13.21875 L33.1875,13.21875 L33.1875,31.78125 Z M33.1875,10.40625 L2.8125,10.40625 L2.8125,7.03125 C2.8125,6.25584375 3.44334375,5.625 4.21875,5.625 L5.90625,5.625 L5.90625,8.4375 L8.71875,8.4375 L8.71875,5.625 L27.28125,5.625 L27.28125,8.4375 L30.09375,8.4375 L30.09375,5.625 L31.78125,5.625 C32.5566563,5.625 33.1875,6.25584375 33.1875,7.03125 L33.1875,10.40625 Z" id="Shape"></path>
            <rect id="Rectangle-path" x="5.34375" y="16.171875" width="2.8125" height="2.8125"></rect>
            <rect id="Rectangle-path" x="10.96875" y="16.171875" width="2.8125" height="2.8125"></rect>
            <rect id="Rectangle-path" x="16.59375" y="16.171875" width="2.8125" height="2.8125"></rect>
            <rect id="Rectangle-path" x="22.21875" y="16.171875" width="2.8125" height="2.8125"></rect>
            <rect id="Rectangle-path" x="27.84375" y="16.171875" width="2.8125" height="2.8125"></rect>
            <rect id="Rectangle-path" x="5.34375" y="21.796875" width="2.8125" height="2.8125"></rect>
            <rect id="Rectangle-path" x="10.96875" y="21.796875" width="2.8125" height="2.8125"></rect>
            <rect id="Rectangle-path" x="16.59375" y="21.796875" width="2.8125" height="2.8125"></rect>
            <rect id="Rectangle-path" x="22.21875" y="21.796875" width="2.8125" height="2.8125"></rect>
            <rect id="Rectangle-path" x="5.34375" y="27.421875" width="2.8125" height="2.8125"></rect>
            <rect id="Rectangle-path" x="10.96875" y="27.421875" width="2.8125" height="2.8125"></rect>
            <rect id="Rectangle-path" x="16.59375" y="27.421875" width="2.8125" height="2.8125"></rect>
            <rect id="Rectangle-path" x="22.21875" y="27.421875" width="2.8125" height="2.8125"></rect>
            <rect id="Rectangle-path" x="27.84375" y="21.796875" width="2.8125" height="2.8125"></rect>
        </g>
    </g>
</svg>