<?xml version="1.0" encoding="UTF-8"?>
<svg width="36px" height="36px" viewBox="0 0 36 36" version="1.1" xmlns="http://www.w3.org/2000/svg" xmlns:xlink="http://www.w3.org/1999/xlink">
    <!-- Generator: Sketch 50.2 (55047) - http://www.bohemiancoding.com/sketch -->
    <title>icon/checked_white</title>
    <desc>Created with Sketch.</desc>
    <defs></defs>
    <g id="icon/checked_white" stroke="none" stroke-width="1" fill="none" fill-rule="evenodd">
        <path d="M30.03408,19.7568253 C29.94768,19.7132463 29.8611284,19.6914947 29.7738947,19.6914947 C29.5860884,19.6914947 29.42064,19.7635705 29.2764884,19.9080253 L27.8915116,21.2927747 C27.7620632,21.4227537 27.6970358,21.5812295 27.6970358,21.76896 L27.6970358,27.2646821 C27.6970358,28.2169768 27.3587874,29.0316379 26.68032,29.7099537 C26.0023832,30.3878905 25.1871916,30.7268968 24.2350484,30.7268968 L6.23186526,30.7268968 C5.27964632,30.7268968 4.46453053,30.3878905 3.78659368,29.7099537 C3.10850526,29.0317137 2.76965053,28.2170526 2.76965053,27.2646821 L2.76965053,9.26187789 C2.76965053,8.30981053 3.10850526,7.49477053 3.78659368,6.81660632 C4.46453053,6.13859368 5.27964632,5.79966316 6.23186526,5.79966316 L24.2352,5.79966316 C24.5526063,5.79966316 24.8771368,5.84293895 25.2088674,5.92956632 C25.2954947,5.95821474 25.3603705,5.97284211 25.4031158,5.97284211 C25.5909221,5.97284211 25.7569011,5.90091789 25.9010526,5.75669053 L26.9613474,4.69639579 C27.1342989,4.52352 27.1994779,4.31418947 27.1558232,4.06916211 C27.1125474,3.83830737 26.9825684,3.67232842 26.7661895,3.57145263 C25.98768,3.21130105 25.1433853,3.03039158 24.2345937,3.03039158 L6.23186526,3.03039158 C4.51523368,3.03039158 3.04734316,3.63989053 1.82834526,4.85888842 C0.609498947,6.07803789 0,7.54570105 0,9.26240842 L0,27.2656674 C0,28.9820716 0.609498947,30.4498863 1.82842105,31.6688842 C3.04741895,32.8881853 4.51530947,33.4976842 6.23194105,33.4976842 L24.2350484,33.4976842 C25.9514526,33.4976842 27.4194947,32.8881853 28.6384926,31.6688842 C29.8575663,30.4498863 30.4675958,28.9821474 30.4675958,27.2656674 L30.4675958,20.3842105 C30.4674442,20.0815074 30.3224589,19.87248 30.03408,19.7568253 Z" id="Shape" fill="#FFFFFF" fill-rule="nonzero"></path>
        <path d="M35.4656842,7.33637053 L33.0852126,4.95589895 C32.7390063,4.60976842 32.3276211,4.43666526 31.8514358,4.43666526 C31.3758568,4.43666526 30.9641684,4.60976842 30.6182653,4.95589895 L16.6179789,18.9561095 L10.9274021,13.2651537 C10.58112,12.9187958 10.1698863,12.74592 9.69400421,12.74592 C9.21804632,12.74592 8.80696421,12.9187958 8.46060632,13.2651537 L6.08043789,15.6453221 C5.73423158,15.9915284 5.56097684,16.4027621 5.56097684,16.8789474 C5.56097684,17.3549053 5.73423158,17.7659874 6.08043789,18.1123453 L15.3848842,27.4167916 C15.7311663,27.7632253 16.1424,27.9360253 16.6182821,27.9360253 C17.0941642,27.9360253 17.5053221,27.7633011 17.85168,27.4167916 L35.4654568,9.80309053 C35.8114358,9.45696 35.9849179,9.04565053 35.9849179,8.56969263 C35.9849179,8.09373474 35.8118905,7.68250105 35.4656842,7.33637053 Z" id="Shape" fill="#FFFFFF" fill-rule="nonzero"></path>
    </g>
</svg>