<?xml version="1.0" encoding="UTF-8"?>
<svg width="36px" height="36px" viewBox="0 0 36 36" version="1.1" xmlns="http://www.w3.org/2000/svg" xmlns:xlink="http://www.w3.org/1999/xlink">
    <!-- Generator: Sketch 50.2 (55047) - http://www.bohemiancoding.com/sketch -->
    <title>icon/comment_gray</title>
    <desc>Created with Sketch.</desc>
    <defs></defs>
    <g id="icon/comment_gray" stroke="none" stroke-width="1" fill="none" fill-rule="evenodd">
        <g id="commenting" transform="translate(0.000000, 4.000000)" fill="#B0B0B0" fill-rule="nonzero">
            <path d="M7,23 C7,23.2 7,23.2 7,23 C7,23.2 7,23.2 7,23 C7,23 7,23 7,23 Z" id="Shape"></path>
            <path d="M18.675,0 C8.775,0 0,5.8 0,12.4923077 C0,16.9538462 2.475,20.7461538 6.75,22.9769231 C6.75,22.9769231 6.75,22.9769231 6.75,22.9769231 C6.75,22.9769231 6.75,23.2 6.75,23.2 C6.525,26.1 4.725,26.9923077 4.725,26.9923077 L0.675,29 L5.175,29 C10.8,29 14.85,26.5461538 16.65,24.7615385 C17.325,24.7615385 18,24.7615385 18.45,24.7615385 C28.125,24.7615385 36,19.1846154 36,12.2692308 C36,5.35384615 28.35,0 18.675,0 Z M18.45,22.5307692 C17.775,22.5307692 16.875,22.5307692 16.425,22.5307692 L15.975,22.5307692 L15.525,22.9769231 C14.4,24.0923077 11.925,26.1 8.1,26.7692308 C8.775,25.6538462 9.225,24.3153846 9.225,22.3076923 L9.225,21.6384615 L8.55,21.4153846 C4.5,19.4076923 2.25,16.2846154 2.25,12.4923077 C2.25,7.13846154 10.125,2.23076923 18.675,2.23076923 C27,2.23076923 33.75,6.69230769 33.75,12.4923077 C33.75,17.8461538 26.775,22.5307692 18.45,22.5307692 Z" id="Shape"></path>
            <path d="M14,13 C14,14.104 12.88,15 11.5,15 C10.12,15 9,14.104 9,13 C9,11.896 10.12,11 11.5,11 C12.88,11 14,11.896 14,13 Z" id="Shape"></path>
            <path d="M21,13 C21,14.104 19.88,15 18.5,15 C17.12,15 16,14.104 16,13 C16,11.896 17.12,11 18.5,11 C19.88,11 21,11.896 21,13 Z" id="Shape"></path>
            <path d="M28,13 C28,14.104 26.88,15 25.5,15 C24.12,15 23,14.104 23,13 C23,11.896 24.12,11 25.5,11 C26.88,11 28,11.896 28,13 Z" id="Shape"></path>
        </g>
    </g>
</svg>