<?xml version="1.0" encoding="UTF-8"?>
<svg width="36px" height="36px" viewBox="0 0 36 36" version="1.1" xmlns="http://www.w3.org/2000/svg" xmlns:xlink="http://www.w3.org/1999/xlink">
    <!-- Generator: Sketch 50.2 (55047) - http://www.bohemiancoding.com/sketch -->
    <title>icon/paperclip_gray</title>
    <desc>Created with Sketch.</desc>
    <defs></defs>
    <g id="icon/paperclip_gray" stroke="none" stroke-width="1" fill="none" fill-rule="evenodd">
        <g id="attachment-paperclip-symbol-of-interface" transform="translate(0.000000, 1.000000)" fill="#B0B0B0" fill-rule="nonzero">
            <path d="M33.2097357,2.85509951 L33.0413051,2.68872431 C29.3187993,-0.915680261 23.3567178,-0.877683524 19.6803719,2.79966069 L2.66270799,19.8224339 C1.38015661,21.1070408 0,23.4401697 0,25.527876 C0,27.4882023 0.765044046,29.33354 2.15236542,30.7198042 C3.54074388,32.1091811 5.38707993,32.8742838 7.35151713,32.8742838 L7.35257423,32.8742838 C9.31701142,32.8732268 11.1634062,32.1081827 12.5507276,30.7188646 L27.2414878,16.027106 C28.2508972,15.0176966 28.8034062,13.6190408 28.754075,12.1875563 C28.7079152,10.8741729 28.1707928,9.64089396 27.2414878,8.71358564 C26.2639086,7.73700489 24.9658532,7.19888418 23.5836998,7.19888418 C22.2014878,7.19888418 20.9024927,7.7359478 19.9279674,8.71358564 L8.67723328,19.9652007 C8.39381403,20.2455073 8.21616313,20.6336966 8.21616313,21.0628777 C8.21616313,21.9131941 8.9052137,22.6032431 9.75652855,22.6032431 C10.1816574,22.6032431 10.5657357,22.4307015 10.8439869,22.1524502 L10.845044,22.1535073 L22.1069951,10.8895595 C22.5095139,10.4880392 23.0650767,10.2908907 23.618584,10.3001109 C24.1494812,10.3083328 24.6772659,10.5065383 25.064398,10.8926134 C25.4392561,11.2674127 25.6559021,11.7664796 25.6753997,12.2933246 C25.6959543,12.8807178 25.4782512,13.4342251 25.0633409,13.8490767 L10.3726395,28.5407765 C9.56548777,29.3479282 8.49341599,29.7925546 7.35257423,29.7936117 L7.35151713,29.7936117 C6.21061664,29.7936117 5.13754649,29.3479282 4.33039478,28.5407765 C3.52529853,27.7356803 3.0806721,26.6656639 3.0806721,25.527876 C3.0806721,24.5707928 3.88782382,22.9565481 4.84179445,22.000522 L21.8594584,4.97874715 C24.3527374,2.48341272 28.3987145,2.46591191 30.9145449,4.91714192 L31.0778075,5.08146166 C33.4899837,7.60351713 33.4560979,11.6176639 30.9762088,14.0986101 L16.8913997,28.1844176 C16.6089788,28.4647243 16.4333834,28.8509168 16.4333834,29.2800979 C16.4333834,30.1304144 17.1224339,30.8204633 17.9737488,30.8204633 C18.3989364,30.8204633 18.7818989,30.6479217 19.0612659,30.3707276 L19.0622643,30.3717847 L33.1554127,16.2776966 C36.852137,12.5787406 36.8695791,6.57554976 33.2097357,2.85509951 Z" id="Shape"></path>
        </g>
    </g>
</svg>